HIERARCHY
ROOT Hips
{
	OFFSET 0.000000 88.474243 0.000000
	CHANNELS 6 Xposition Yposition Zposition Zrotation Yrotation Xrotation 
	JOINT Hips_Spine
	{
		OFFSET 0.000000 0.000000 0.000000
		CHANNELS 3 Zrotation Yrotation Xrotation
		JOINT Spine
		{
			OFFSET 0.005100 8.711998 -0.691000
			CHANNELS 3 Zrotation Yrotation Xrotation
			JOINT Spine1
			{
				OFFSET -0.009200 8.660301 -1.275000
				CHANNELS 3 Zrotation Yrotation Xrotation
				JOINT Spine2
				{
					OFFSET 0.006300 9.852501 -1.857000
					CHANNELS 3 Zrotation Yrotation Xrotation
					JOINT Spine2_Neck
					{
						OFFSET 0.000000 0.000000 0.000000
						CHANNELS 3 Zrotation Yrotation Xrotation
						JOINT Neck
						{
							OFFSET 0.016300 11.420799 -0.263300
							CHANNELS 3 Zrotation Yrotation Xrotation
							End Site #name: Head
							{
								OFFSET -0.019200 9.262405 2.362500
							}
						}
					}
					JOINT Spine2_LeftShoulder
					{
						OFFSET 0.000000 0.000000 0.000000
						CHANNELS 3 Zrotation Yrotation Xrotation
						JOINT LeftShoulder
						{
							OFFSET 5.616900 6.732201 -0.345700
							CHANNELS 3 Zrotation Yrotation Xrotation
							JOINT LeftArm
							{
								OFFSET 10.664888 -0.183372 -2.440700
								CHANNELS 3 Zrotation Yrotation Xrotation
								JOINT LeftForeArm
								{
									OFFSET 27.459126 0.000000 0.000000
									CHANNELS 3 Zrotation Yrotation Xrotation
									End Site #name: LeftHand
									{
										OFFSET 21.306858 0.000000 0.000000
									}
								}
							}
						}
					}
					JOINT Spine2_RightShoulder
					{
						OFFSET 0.000000 0.000000 0.000000
						CHANNELS 3 Zrotation Yrotation Xrotation
						JOINT RightShoulder
						{
							OFFSET -5.580300 6.737503 -0.344400
							CHANNELS 3 Zrotation Yrotation Xrotation
							JOINT RightArm
							{
								OFFSET -10.679335 -0.188484 -2.383900
								CHANNELS 3 Zrotation Yrotation Xrotation
								JOINT RightForeArm
								{
									OFFSET -27.503529 0.000000 0.000000
									CHANNELS 3 Zrotation Yrotation Xrotation
									End Site #name: RightHand
									{
										OFFSET -21.306808 0.000000 0.000000
									}
								}
							}
						}
					}
				}
			}
		}
	}
	JOINT Hips_LeftUpLeg
	{
		OFFSET 0.000000 0.000000 0.000000
		CHANNELS 3 Zrotation Yrotation Xrotation
		JOINT LeftUpLeg
		{
			OFFSET 6.857700 -6.739601 0.312100
			CHANNELS 3 Zrotation Yrotation Xrotation
			JOINT LeftLeg
			{
				OFFSET -0.367590 -34.731552 -4.572400
				CHANNELS 3 Zrotation Yrotation Xrotation
				End Site #name: LeftFoot
				{
					OFFSET 0.367590 -34.656704 -6.067400
				}
			}
		}
	}
	JOINT Hips_RightUpLeg
	{
		OFFSET 0.000000 0.000000 0.000000
		CHANNELS 3 Zrotation Yrotation Xrotation
		JOINT RightUpLeg
		{
			OFFSET -6.876100 -6.733299 0.301000
			CHANNELS 3 Zrotation Yrotation Xrotation
			JOINT RightLeg
			{
				OFFSET 0.347353 -34.795158 -4.515900
				CHANNELS 3 Zrotation Yrotation Xrotation
				End Site #name: RightFoot
				{
					OFFSET -0.347353 -34.589367 -6.070300
				}
			}
		}
	}
}
MOTION
Frames: 9
Frame Time: 0.041667
2.904601 0.782666 -4.742131 175.529575 -6.554417 -178.324578 0.000000 -0.000000 0.000000 -5.715078 -0.568139 4.271428 0.476731 -2.014888 0.478020 0.000000 0.000000 0.000000 1.093432 -1.858057 1.098203 2.718170 -31.372174 -3.148059 0.009806 -1.615985 -0.886897 1.623544 -7.246554 0.787184 -85.798935 -23.150083 13.312784 3.149022 -17.104359 -0.362477 0.421847 -2.563918 -0.246639 16.058133 15.171508 4.151780 55.486595 9.454537 9.985258 -2.255352 53.706693 1.965224 0.000000 0.000000 0.000000 -3.233452 15.319211 -5.297169 0.157231 -36.251750 -14.793340 0.000000 0.000000 -0.000000 -4.144227 -52.890077 -10.260562 -12.301485 -6.509406 21.083756 
2.965827 0.847390 -4.863832 175.466916 -5.475865 -178.329542 0.000000 -0.000000 0.000000 -5.996783 -0.496983 4.435015 0.464406 -1.913632 0.412154 0.000000 0.000000 0.000000 1.059338 -1.815467 1.015649 2.388241 -30.204323 -3.554987 0.000100 -1.558385 -0.900838 1.663623 -7.715004 0.936034 -85.652569 -23.276617 13.474056 3.034865 -18.185710 -0.575008 0.420591 -2.495055 -0.308874 15.735063 15.133767 4.169335 55.468585 9.383671 10.290459 -2.526172 53.306099 1.704463 0.000000 0.000000 0.000000 -3.277960 15.042534 -5.808612 -0.038547 -36.067465 -14.161768 0.000000 0.000000 -0.000000 -3.973500 -51.887135 -10.229262 -11.755293 -5.689733 20.613617 
3.028836 0.912131 -4.980507 175.335215 -4.680450 -178.299668 0.000000 -0.000000 0.000000 -6.279684 -0.383185 4.593784 0.449427 -1.816519 0.331283 0.000000 0.000000 0.000000 1.022680 -1.759015 0.929654 2.128058 -28.930944 -4.146281 -0.005740 -1.483308 -0.911226 1.714561 -8.070028 1.020612 -85.427920 -23.395616 13.573656 3.005782 -19.433156 -0.684330 0.423117 -2.409863 -0.367479 15.423014 15.102258 4.195398 55.449506 9.312439 10.599725 -2.756834 52.908985 1.479425 0.000000 0.000000 -0.000000 -3.322901 14.756781 -6.317676 -0.238522 -35.897357 -13.529433 0.000000 0.000000 -0.000000 -3.887916 -51.087488 -10.116632 -11.267661 -4.872543 20.145441 
3.094428 0.974896 -5.093895 175.151183 -4.162665 -178.258456 -0.000000 -0.000000 0.000000 -6.563796 -0.228051 4.777627 0.428611 -1.707783 0.246308 0.000000 0.000000 0.000000 0.984766 -1.688164 0.844880 1.924340 -27.632875 -4.862481 -0.012468 -1.393710 -0.913725 1.784564 -8.285787 1.023708 -85.131081 -23.502101 13.663062 3.011444 -20.948435 -0.790119 0.421702 -2.305757 -0.418782 15.108166 15.111400 4.227035 55.441663 9.258440 10.880180 -2.852955 52.538650 1.410619 0.000000 0.000000 -0.000000 -3.373546 14.425408 -6.815426 -0.458567 -35.760165 -12.883025 0.000000 0.000000 -0.000000 -3.859682 -50.575093 -9.938721 -10.772896 -3.932226 19.682263 
3.164079 1.034351 -5.205460 174.917403 -3.944848 -178.203173 -0.000000 -0.000000 0.000000 -6.851870 -0.052155 4.980190 0.395593 -1.595658 0.177139 0.000000 0.000000 0.000000 0.947215 -1.612554 0.762408 1.650982 -26.357090 -5.742378 -0.023388 -1.294839 -0.908893 1.848532 -8.461921 1.033812 -84.810403 -23.606966 13.720872 3.051656 -22.642397 -0.904635 0.411865 -2.193032 -0.464696 14.788677 15.177910 4.270677 55.436962 9.202894 11.156540 -2.954035 52.284289 1.338808 0.000000 0.000000 -0.000000 -3.429546 14.048329 -7.295449 -0.705141 -35.653210 -12.215910 0.000000 0.000000 -0.000000 -3.873180 -50.514280 -9.724080 -10.317883 -2.797296 19.314299 
3.240018 1.089725 -5.315788 174.646796 -4.080586 -178.131046 -0.000000 -0.000000 0.000000 -7.155049 0.116854 5.185289 0.342495 -1.485119 0.127469 0.000000 0.000000 0.000000 0.905456 -1.539081 0.690199 1.325933 -25.041599 -6.815608 -0.039670 -1.190762 -0.899226 1.903046 -8.596975 1.050982 -84.467007 -23.726119 13.801403 3.145075 -24.469346 -1.015790 0.396596 -2.084077 -0.512540 14.462607 15.313310 4.327544 55.440461 9.163661 11.366278 -3.053282 52.202150 1.265315 0.000000 0.000000 -0.000000 -3.492576 13.650571 -7.761586 -0.979855 -35.584530 -11.514964 0.000000 -0.000000 -0.000000 -3.965920 -50.941023 -9.406167 -9.729074 -1.539735 18.909595 
3.324858 1.141632 -5.424531 174.337337 -4.472986 -178.043581 -0.000000 -0.000000 0.000000 -7.467806 0.301201 5.371392 0.271522 -1.384854 0.092888 0.000000 0.000000 0.000000 0.866009 -1.476606 0.611757 1.196316 -23.519644 -8.021770 -0.062654 -1.090238 -0.889153 1.937874 -8.711843 1.074228 -84.128925 -23.850631 13.872096 3.270678 -26.412990 -1.130402 0.378383 -1.984377 -0.560507 14.146875 15.529025 4.410507 55.446310 9.148620 11.521621 -3.153428 52.315086 1.191443 0.000000 0.000000 -0.000000 -3.560856 13.264142 -8.206680 -1.281078 -35.595616 -10.775198 0.000000 -0.000000 -0.000000 -4.171181 -51.780377 -9.025662 -9.069368 -0.408570 18.553028 
3.418940 1.188557 -5.530364 174.006769 -5.170765 -177.945660 -0.000000 -0.000000 0.000000 -7.790352 0.423329 5.627241 0.194864 -1.300541 0.053500 0.000000 0.000000 0.000000 0.827383 -1.430496 0.533123 1.083482 -21.978089 -9.175963 -0.096069 -1.000223 -0.882843 1.961622 -8.833302 1.103354 -83.790071 -23.942367 13.895470 3.432486 -28.565048 -1.252384 0.353576 -1.893415 -0.604169 13.838720 15.831992 4.508127 55.450183 9.148534 11.549732 -3.254108 52.654640 1.113812 0.000000 0.000000 -0.000000 -3.702116 12.856773 -8.693941 -1.618259 -35.700673 -9.951108 0.000000 -0.000000 -0.000000 -4.442426 -52.924570 -8.687051 -8.357999 0.623965 18.384893 
3.519559 1.233435 -5.634934 173.630577 -5.929748 -177.843756 -0.000000 -0.000000 0.000000 -8.124975 0.489090 5.890273 0.105809 -1.258746 0.046632 0.000000 0.000000 0.000000 0.797755 -1.409413 0.451191 1.025536 -20.254927 -10.533898 -0.138737 -0.941792 -0.867858 1.989907 -8.966210 1.132835 -83.448437 -24.055539 13.903044 3.685096 -32.123053 -1.435057 0.323488 -1.814773 -0.635560 13.537438 16.233006 4.632876 55.450266 9.214490 11.464424 -3.356258 53.257290 1.032489 0.000000 0.000000 -0.000000 -3.886867 12.505837 -9.203083 -2.032256 -35.900590 -9.052777 0.000000 -0.000000 -0.000000 -4.759278 -54.333621 -8.343981 -7.510378 1.685370 18.294380 
